<?xml version="1.0" encoding="utf-8"?>
<!-- Generator: Adobe Illustrator 16.0.0, SVG Export Plug-In . SVG Version: 6.00 Build 0)  -->
<!DOCTYPE svg PUBLIC "-//W3C//DTD SVG 1.1//EN" "http://www.w3.org/Graphics/SVG/1.1/DTD/svg11.dtd">
<svg version="1.1" id="Layer_1" xmlns="http://www.w3.org/2000/svg" xmlns:xlink="http://www.w3.org/1999/xlink" x="0px" y="0px"
	 width="841.89px" height="595.28px" viewBox="0 0 841.89 595.28" enable-background="new 0 0 841.89 595.28" xml:space="preserve">
<g>
	<defs>
		<path id="SVGID_12_" d="M377.396,412.85c-11.102-2.642-21.885-6.577-32.165-11.54c-0.007-0.003-0.012-0.006-0.019-0.009
			c-10.742-5.179-20.753-11.861-29.633-19.819c-8.894-7.95-16.645-17.142-23.226-27.096c-0.004-0.004-0.007-0.01-0.012-0.015
			c-7.386-11.183-12.708-23.67-16.015-36.655c-3.328-12.994-4.702-26.446-4.723-39.867v-0.019
			c0.023-13.656,1.376-27.342,4.687-40.584c3.291-13.229,8.604-25.978,16.058-37.393c0.004-0.006,0.008-0.011,0.011-0.017
			c6.523-9.972,14.21-19.198,23.066-27.162c8.842-7.972,18.847-14.646,29.606-19.744c0.007-0.002,0.013-0.005,0.019-0.007
			c10.326-4.901,21.153-8.747,32.287-11.314c11.13-2.574,22.554-3.861,33.979-3.856h0.02c4.468,0.017,8.933,0.22,13.382,0.61
			c18.504,1.657,36.612,6.869,53.435,14.74c0.004,0.002,0.012,0.006,0.018,0.01c10.955,5.108,21.191,11.748,30.291,19.705
			c9.109,7.947,17.072,17.18,23.837,27.204c0.004,0.007,0.008,0.011,0.012,0.017c7.618,11.31,13.082,24.009,16.466,37.216
			c3.403,13.22,4.797,26.911,4.821,40.569c0,0.006,0,0.014,0,0.021c-0.018,15.435-1.987,30.921-6.618,45.646
			c-2.309,7.356-5.27,14.509-8.878,21.319c-0.891,1.709-1.886,3.361-2.823,5.045c-0.983,1.656-2.039,3.271-3.056,4.907
			c-1.071,1.601-2.188,3.173-3.28,4.761c-1.289,1.702-2.582,3.403-3.875,5.104c0.323-0.01,0.484-0.016,0.484-0.016
			c0.161-0.005,0.321-0.01,0.482-0.015c0.16-0.005,0.322-0.011,0.483-0.015c0,0,0.16-0.006,0.482-0.017
			c-0.322,0.011-0.482,0.017-0.482,0.017c-0.161,0.004-0.323,0.01-0.483,0.015c-0.161,0.005-0.321,0.01-0.482,0.015
			c0,0-0.161,0.006-0.484,0.016c7.836,9.04,15.668,18.078,23.502,27.116c-15.957,13.709-31.912,27.419-47.867,41.13
			c-8.672-9.997-17.344-19.991-26.017-29.987c-0.011,0.005-0.022,0.01-0.034,0.017c-0.785,0.355-1.567,0.713-2.351,1.068
			c-0.621,0.273-1.243,0.545-1.866,0.818c-1.249,0.531-2.504,1.051-3.765,1.555c-2.525,1.001-5.078,1.931-7.655,2.789
			c-5.152,1.716-10.404,3.142-15.717,4.279c-0.006,0-0.014,0.001-0.02,0.003c-10.496,2.238-21.219,3.43-31.948,3.429h-0.021
			c-0.004,0-0.01,0-0.014,0C399.89,416.844,388.488,415.5,377.396,412.85 M377,140.148c-11.244,2.592-22.178,6.477-32.594,11.42
			c-0.006,0.002-0.013,0.006-0.019,0.008c-10.888,5.158-21.019,11.916-29.966,19.983c-8.962,8.06-16.733,17.39-23.318,27.456
			c-0.004,0.006-0.007,0.012-0.012,0.018c-7.551,11.565-12.931,24.479-16.257,37.85c-3.346,13.384-4.708,27.191-4.732,40.947v0.019
			c0.022,13.522,1.407,27.099,4.771,40.24c3.343,13.127,8.733,25.781,16.217,37.107c0.004,0.008,0.008,0.012,0.011,0.018
			c6.646,10.049,14.48,19.344,23.478,27.385c8.982,8.052,19.116,14.814,29.98,20.053c0.005,0.002,0.013,0.007,0.017,0.01
			c10.371,5.005,21.258,8.979,32.472,11.647c11.21,2.677,22.735,4.036,34.261,4.035h0.021c10.84,0.001,21.668-1.202,32.261-3.462
			c0.007,0,0.014-0.003,0.021-0.004c5.365-1.148,10.67-2.587,15.877-4.323c2.603-0.865,5.183-1.806,7.732-2.818
			c1.275-0.508,2.543-1.03,3.805-1.57c0.629-0.275,1.258-0.551,1.887-0.825c0.312-0.142,0.623-0.284,0.936-0.427
			c0.148-0.066,0.296-0.133,0.444-0.2l-0.002,0.001c8.743,10.079,17.487,20.159,26.233,30.241c0.008,0.007,0.018,0.023,0.026,0.024
			c16.706-14.355,33.412-28.71,50.118-43.065c0.007-0.004,0.014-0.012,0.02-0.017l-0.01-0.01
			c-7.893-9.107-15.785-18.216-23.679-27.323c1.053-1.388,2.104-2.775,3.157-4.163c1.106-1.606,2.234-3.197,3.32-4.817
			c1.028-1.656,2.096-3.289,3.092-4.966c0.949-1.703,1.955-3.377,2.857-5.106c3.653-6.894,6.65-14.132,8.982-21.574
			c4.686-14.892,6.671-30.532,6.688-46.094c0-0.007,0-0.015,0-0.021c-0.023-13.76-1.427-27.578-4.868-40.942
			c-3.42-13.354-8.952-26.222-16.675-37.683c-0.003-0.004-0.008-0.01-0.011-0.017c-6.831-10.121-14.878-19.455-24.095-27.494
			c-9.203-8.049-19.564-14.77-30.644-19.936c-0.005-0.003-0.011-0.005-0.019-0.009c-16.957-7.936-35.243-13.2-53.933-14.875
			c-4.495-0.395-9.006-0.6-13.517-0.616h-0.02c-0.021,0-0.041,0-0.061,0C399.74,136.253,388.222,137.553,377,140.148"/>
	</defs>
	<clipPath id="SVGID_2_">
		<use xlink:href="#SVGID_12_"  overflow="visible"/>
	</clipPath>
	<defs>
		<filter id="Adobe_OpacityMaskFilter" filterUnits="userSpaceOnUse" x="270.103" y="136.253" width="285.12" height="299.04">
			<feColorMatrix  type="matrix" values="1 0 0 0 0  0 1 0 0 0  0 0 1 0 0  0 0 0 1 0"/>
		</filter>
	</defs>
	<mask maskUnits="userSpaceOnUse" x="270.103" y="136.253" width="285.12" height="299.04" id="SVGID_3_">
		<g filter="url(#Adobe_OpacityMaskFilter)">
			<g>
				<g>
					<defs>
						<rect id="SVGID_15_" x="270.103" y="136.249" width="284.994" height="298.731"/>
					</defs>
					<clipPath id="SVGID_5_" clip-path="url(#SVGID_2_)">
						<use xlink:href="#SVGID_15_"  overflow="visible"/>
					</clipPath>
					<g clip-path="url(#SVGID_5_)">
						
							<image overflow="visible" width="594" height="623" xlink:href="83B76DC3348D827F.jpg"  transform="matrix(0.48 0 0 0.48 270.1025 136.2485)">
						</image>
					</g>
				</g>
			</g>
		</g>
	</mask>
	<g clip-path="url(#SVGID_2_)" mask="url(#SVGID_3_)">
		<defs>
			<filter id="Adobe_OpacityMaskFilter_1_" filterUnits="userSpaceOnUse" x="270.103" y="136.253" width="285.12" height="299.04">
				<feColorMatrix  type="matrix" values="1 0 0 0 0  0 1 0 0 0  0 0 1 0 0  0 0 0 1 0"/>
			</filter>
		</defs>
		<mask maskUnits="userSpaceOnUse" x="270.103" y="136.253" width="285.12" height="299.04" id="SVGID_3_">
			<g filter="url(#Adobe_OpacityMaskFilter_1_)">
				<rect x="269.103" y="135.253" width="286.993" height="300.728"/>
				<g enable-background="new    ">
					<g>
						<defs>
							<rect id="SVGID_17_" x="270.103" y="136.249" width="284.994" height="298.731"/>
						</defs>
						<clipPath id="SVGID_7_">
							<use xlink:href="#SVGID_17_"  overflow="visible"/>
						</clipPath>
						<g clip-path="url(#SVGID_7_)">
							
								<image overflow="visible" width="594" height="623" xlink:href="83B76DC3348D827D.jpg"  transform="matrix(0.48 0 0 0.48 270.1025 136.2485)">
							</image>
						</g>
					</g>
				</g>
			</g>
		</mask>
		<g>
			<g>
				<defs>
					<rect id="SVGID_19_" x="270.103" y="136.253" width="284.993" height="298.728"/>
				</defs>
				<clipPath id="SVGID_9_">
					<use xlink:href="#SVGID_19_"  overflow="visible"/>
				</clipPath>
				<defs>
					
						<filter id="Adobe_OpacityMaskFilter_2_" filterUnits="userSpaceOnUse" x="270.103" y="136.253" width="285.12" height="299.04">
						<feColorMatrix  type="matrix" values="1 0 0 0 0  0 1 0 0 0  0 0 1 0 0  0 0 0 1 0"/>
					</filter>
				</defs>
				<mask maskUnits="userSpaceOnUse" x="270.103" y="136.253" width="285.12" height="299.04" id="SVGID_3_">
					<g filter="url(#Adobe_OpacityMaskFilter_2_)">
						<g>
							<defs>
								<rect id="SVGID_21_" x="270.103" y="136.249" width="284.994" height="298.731"/>
							</defs>
							<clipPath id="SVGID_11_" clip-path="url(#SVGID_9_)">
								<use xlink:href="#SVGID_21_"  overflow="visible"/>
							</clipPath>
							<g clip-path="url(#SVGID_11_)">
								
								<image overflow="visible" width="594" height="623" xlink:href="83B76DC3348D8283.jpg"  transform="matrix(0.48 0 0 0.48 270.1025 136.2485)">
								</image>
							</g>
						</g>
					</g>
				</mask>
				<g clip-path="url(#SVGID_9_)">
					<image overflow="visible" width="594" height="623" xlink:href="83B76DC3348D8285.jpg" transform="matrix(0.48 0 0 0.48 270.1025 136.2529)">
					</image>
				</g>
			</g>
		</g>
	</g>
</g>
</svg>
