<svg xmlns="http://www.w3.org/2000/svg" width="500" height="500">
      <g style="fill:none;stroke:#000000;stroke-width:10;stroke-linecap:round;stroke-linejoin:round;">
      <path d="M258,120 Q256,119, 254,118 Q252,117, 249.5,116 Q247,115, 241.5,112.5 Q236,110, 231,107.5 Q226,105, 221,102 Q216,99, 211,96 Q206,93, 201,88 Q196,83, 193.5,80.5 Q191,78, 190,76 Q189,74, 188,71.5 Q187,69, 186.5,67.5 Q186,66, 186,63.5 Q186,61, 187,58.5 Q188,56, 189.5,53.5 Q191,51, 192,49.5 Q193,48, 194,47 Q195,46, 195.5,45 Q196,44, 196.5,44 Q197,44, 197.5,43.5 Q198,43, 199,42.5 Q200,42, 202.5,41 Q205,40, 206.5,39 Q208,38, 209.5,37.5 Q211,37, 213.5,36 Q216,35, 218,34.5 Q220,34, 225.5,33.5 Q231,33, 234,33 Q237,33, 240.5,32.5 Q244,32, 247,32 Q250,32, 253.5,32 Q257,32, 261,32 Q265,32, 268,32.5 Q271,33, 275,33.5 Q279,34, 280.5,35 Q282,36, 283,36 Q284,36, 285.5,37 Q287,38, 288.5,38.5 Q290,39, 290.5,40 Q291,41, 291.5,42 Q292,43, 293,43.5 Q294,44, 294.5,45 Q295,46, 295,47 Q295,48, 295.5,48.5 Q296,49, 296.5,50 Q297,51, 297.5,51.5 Q298,52, 298.5,53 Q299,54, 299.5,55 Q300,56, 300,56.5 Q300,57, 300,57.5 Q300,58, 300.5,58.5 Q301,59, 301,60 Q301,61, 301.5,61.5 Q302,62, 302,63 Q302,64, 302,64.5 Q302,65, 302,66 Q302,67, 302.5,68 Q303,69, 303,69.5 Q303,70, 303,71 Q303,72, 303,72.5 Q303,73, 303,73.5 Q303,74, 303,74.5 Q303,75, 303,75.5 Q303,76, 303,76.5 Q303,77, 303,77.5 Q303,78, 303,78.5 Q303,79, 303,80 Q303,81, 303,81.5 Q303,82, 303,83 Q303,84, 303,84 Q303,84, 303.5,84 Q304,84, 304,84.5 Q304,85, 304,86 Q304,87, 304,88 Q304,89, 304,89.5 Q304,90, 304,91 Q304,92, 304.5,93 Q305,94, 305,95 Q305,96, 305,97 Q305,98, 305,99 Q305,100, 305,101.5 Q305,103, 305,104.5 Q305,106, 305,106.5 Q305,107, 305,107.5 Q305,108, 305,108.5 Q305,109, 305,109.5 Q305,110, 305.5,112.5 Q306,115, 306,117 Q306,119, 306,119.5 Q306,120, 306.5,121.5 Q307,123, 307,123.5 Q307,124, 307.5,125 Q308,126, 308.5,127.5 Q309,129, 309,130 Q309,131, 309,131.5 Q309,132, 309.5,133.5 Q310,135, 310,136 Q310,137, 310.5,137.5 Q311,138, 311,139 Q311,140, 312,142 Q313,144, 313.5,145.5 Q314,147, 315,148 Q316,149, 316.5,150 Q317,151, 317.5,152 Q318,153, 319,154 Q320,155, 321.5,156.5 Q323,158, 325.5,160.5 Q328,163, 330.5,165 Q333,167, 335.5,169.5 Q338,172, 340,173 Q342,174, 343.5,175 Q345,176, 347.5,177 Q350,178, 351.5,179 Q353,180, 356,181 Q359,182, 362,183.5 Q365,185, 367.5,185.5 Q370,186, 371.5,186 Q373,186, 374.5,186.5 Q376,187, 378.5,187 Q381,187, 382.5,187 Q384,187, 385.5,187 Q387,187, 388,187 Q389,187, 390.5,186.5 Q392,186, 393.5,184.5 Q395,183, 396,182.5 Q397,182, 398.5,181 Q400,180, 402,178 Q404,176, 405.5,174.5 Q407,173, 410.5,169.5 Q414,166, 416.5,164 Q419,162, 421.5,160 Q424,158, 425,157 Q426,156, 426.5,155.5 Q427,155, 427,154.5 Q427,154, 427.5,153.5 Q428,153, 428.5,152 Q429,151, 429.5,150 Q430,149, 430,148 Q430,147, 431,145 Q432,143, 432.5,141.5 Q433,140, 433,138.5 Q433,137, 433.5,136 Q434,135, 435,129.5 Q436,124, 436,123 Q436,122, 436,121.5 Q436,121, 436,120 Q436,119, 436,117 Q436,115, 436,113.5 Q436,112, 436,111 Q436,110, 436,108.5 Q436,107, 436,106.5 Q436,106, 436,105 Q436,104, 436,102.5 Q436,101, 435.5,100 Q435,99, 434.5,97.5 Q434,96, 433.5,95 Q433,94, 432.5,92.5 Q432,91, 431.5,90 Q431,89, 430.5,88.5 Q430,88, 429,87 Q428,86, 426.5,84 Q425,82, 423,80.5 Q421,79, 419.5,77.5 Q418,76, 416,75 Q414,74, 411.5,72.5 Q409,71, 407.5,70.5 Q406,70, 403.5,68.5 Q401,67, 400.5,66.5 Q400,66, 398.5,65 Q397,64, 395.5,63.5 Q394,63, 393,63 Q392,63, 391.5,63 Q391,63, 390,63 Q389,63, 387,63 Q385,63, 383.5,63 Q382,63, 380,63 Q378,63, 376,63 Q374,63, 371.5,63 Q369,63, 368,63 Q367,63, 366,63 Q365,63, 364.5,63.5 Q364,64, 361,64 Q358,64, 356,64.5 Q354,65, 352.5,65.5 Q351,66, 347.5,67.5 Q344,69, 340.5,70 Q337,71, 334,71.5 Q331,72, 328.5,72.5 Q326,73, 324.5,73.5 Q323,74, 322,75 Q321,76, 320.5,76 Q320,76, 319,77 Q318,78, 315,81 Q312,84, 310.5,85.5 Q309,87, 308.5,87.5 Q308,88, 307.5,89 Q307,90, 306.5,91 Q306,92, 305.5,92.5 Q305,93, 304.5,94 Q304,95, 303.5,96 Q303,97, 302,98.5 Q301,100, 300.5,101 Q300,102, 299.5,103 Q299,104, 297.5,105.5 Q296,107, 295.5,107.5 Q295,108, 295,109 Q295,110, 294.5,111 Q294,112, 293.5,113 Q293,114, 292.5,115 Q292,116, 291,117.5 Q290,119, 289.5,120 Q289,121, 288,122.5 Q287,124, 286,126 Q285,128, 284,129.5 Q283,131, 282.5,131.5 Q282,132, 281,134 Q280,136, 279,137.5 Q278,139, 276.5,140.5 Q275,142, 274.5,143 Q274,144, 272.5,146 Q271,148, 269,150.5 Q267,153, 264.5,155 Q262,157, 259.5,159.5 Q257,162, 255.5,163 Q254,164, 253,165 Q252,166, 250,167.5 Q248,169, 245.5,171 Q243,173, 240.5,174.5 Q238,176, 236,177.5 Q234,179, 231.5,180.5 Q229,182, 227,183 Q225,184, 222.5,185 Q220,186, 217.5,187 Q215,188, 212.5,189.5 Q210,191, 207.5,192 Q205,193, 201.5,193.5 Q198,194, 195.5,194.5 Q193,195, 189,195.5 Q185,196, 182,196 Q179,196, 176.5,196 Q174,196, 171.5,196 Q169,196, 167.5,196 Q166,196, 164.5,196 Q163,196, 160,196 Q157,196, 152.5,196 Q148,196, 143,195.5 Q138,195, 132,194 Q126,193, 121,192.5 Q116,192, 110,190.5 Q104,189, 98.5,187.5 Q93,186, 90,185 Q87,184, 85.5,183.5 Q84,183, 82.5,182 Q81,181, 78.5,180 Q76,179, 74,178 Q72,177, 69.5,175.5 Q67,174, 65.5,173 Q64,172, 61,170 Q58,168, 58,167.5 Q58,167, 55.5,165 Q53,163, 52.5,162 Q52,161, 50.5,159 Q49,157, 48,155.5 Q47,154, 45.5,151.5 Q44,149, 43.5,147.5 Q43,146, 42,144 Q41,142, 40,139.5 Q39,137, 38.5,135.5 Q38,134, 37.5,132.5 Q37,131, 37,129 Q37,127, 36.5,125.5 Q36,124, 36,122 Q36,120, 36,117 Q36,114, 36,112.5 Q36,111, 36,109 Q36,107, 36.5,105.5 Q37,104, 37.5,101.5 Q38,99, 39,97.5 Q40,96, 41,93.5 Q42,91, 42.5,89.5 Q43,88, 44,86 Q45,84, 46,82.5 Q47,81, 48,79.5 Q49,78, 49.5,77 Q50,76, 51,74.5 Q52,73, 52.5,72.5 Q53,72, 54.5,70 Q56,68, 57.5,66.5 Q59,65, 60,64.5 Q61,64, 61.5,63 Q62,62, 63,61 Q64,60, 66,58.5 Q68,57, 71,55.5 Q74,54, 75.5,53 Q77,52, 79.5,51 Q82,50, 83.5,49 Q85,48, 86.5,47 Q88,46, 89,46 Q90,46, 91.5,45 Q93,44, 94,44 Q95,44, 96.5,43.5 Q98,43, 99.5,42 Q101,41, 103.5,40.5 Q106,40, 108.5,40 Q111,40, 113.5,40 Q116,40, 117.5,40 Q119,40, 121.5,40 Q124,40, 126.5,40 Q129,40, 132.5,40 Q136,40, 138,40 Q140,40, 142,40.5 Q144,41, 145.5,41.5 Q147,42, 148.5,42.5 Q150,43, 151,43.5 Q152,44, 153.5,44.5 Q155,45, 155.5,45.5 Q156,46, 157,47 Q158,48, 158.5,48.5 Q159,49, 160,49 Q161,49, 162,49.5 Q163,50, 163.5,51 Q164,52, 167,53.5 Q170,55, 170.5,55.5 Q171,56, 172,56.5 Q173,57, 173.5,57.5 Q174,58, 175,58.5 Q176,59, 176.5,59.5 Q177,60, 178,60.5 Q179,61, 179.5,61.5 Q180,62, 181,63 Q182,64, 182.5,65 Q183,66, 184,66.5 Q185,67, 185.5,68 Q186,69, 187,70 Q188,71, 188.5,71.5 Q189,72, 190,73 Q191,74, 191.5,74.5 Q192,75, 193,76 Q194,77, 194.5,77.5 Q195,78, 195.5,79 Q196,80, 197,81 Q198,82, 199,83 Q200,84, 201,85 Q202,86, 202.5,86.5 Q203,87, 203.5,87.5 Q204,88, 204.5,88.5 Q205,89, 205.5,89.5 Q206,90, 207,91 Q208,92, 209,93 Q210,94, 211,95 Q212,96, 212.5,96.5 Q213,97, 214,98 Q215,99, 216,100 Q217,101, 219,102 Q221,103, 221.5,104 Q222,105, 223.5,106 Q225,107, 225.5,107.5 Q226,108, 226.5,108.5 Q227,109, 227.5,109.5 Q228,110, 228.5,110 Q229,110, 229.5,110.5 Q230,111, 230.5,111 Q231,111, 232,111.5 Q233,112, 234,112.5 Q235,113, 235.5,113 Q236,113, 237,113.5 Q238,114, 239,114 Q240,114, 241,114 Q242,114, 243,114 Q244,114, 244.5,114.5 Q245,115, 246,115 Q247,115, 247.5,115 Q248,115, 248.5,115.5 Q249,116, 249.5,116 Q250,116, 250.5,116.5 Q251,117, 252,117 Q253,117, 253.5,117.5 Q254,118, 254.5,118 Q255,118, 255.5,118 Q256,118, 256,118" />
<path d="M115,130 Q115,129, 114.5,127.5 Q114,126, 112,120 Q110,114, 109.5,109 Q109,104, 107.5,98.5 Q106,93, 106,88 Q106,83, 106,78 Q106,73, 108.5,68.5 Q111,64, 113,60.5 Q115,57, 118,53.5 Q121,50, 127.5,45.5 Q134,41, 140,39 Q146,37, 150.5,36.5 Q155,36, 159.5,36 Q164,36, 168,36 Q172,36, 174,36.5 Q176,37, 180.5,38.5 Q185,40, 187.5,41.5 Q190,43, 192,45 Q194,47, 195.5,48 Q197,49, 197.5,49.5 Q198,50, 198.5,50 Q199,50, 200,51" />
<path d="M262,105 Q247,96, 237.5,91 Q228,86, 216.5,79.5 Q205,73, 193,67.5 Q181,62, 169,56 Q157,50, 142,45 Q127,40, 117.5,39.5 Q108,39, 103.5,39 Q99,39, 94.5,39 Q90,39, 82.5,39.5 Q75,40, 69,43.5 Q63,47, 59.5,49.5 Q56,52, 51,58 Q46,64, 44,67.5 Q42,71, 40,76 Q38,81, 36.5,85.5 Q35,90, 33.5,94.5 Q32,99, 31.5,103.5 Q31,108, 31,113 Q31,118, 31.5,124 Q32,130, 32.5,133 Q33,136, 34.5,142.5 Q36,149, 36.5,151.5 Q37,154, 38,156.5 Q39,159, 40,161.5 Q41,164, 42.5,166.5 Q44,169, 45.5,171.5 Q47,174, 50,178 Q53,182, 55.5,184.5 Q58,187, 60.5,190 Q63,193, 66.5,196 Q70,199, 75,203.5 Q80,208, 87,212.5 Q94,217, 104,222 Q114,227, 121.5,230.5 Q129,234, 135.5,237.5 Q142,241, 149,244.5 Q156,248, 161.5,252 Q167,256, 172.5,261 Q178,266, 182.5,270 Q187,274, 189.5,277.5 Q192,281, 195.5,286 Q199,291, 200.5,294.5 Q202,298, 204,303" />
      </g></svg>