
<svg ersion="1.1" xmlns="http://www.w3.org/2000/svg" xmlns:xlink="http://www.w3.org/1999/xlink" x="0px" y="0px"  width="220px" height="75px" viewBox="0 0 220 75" enable-background="new 0 0 220 75" xml:space="preserve">><path d="M21.942 8.007c-1.151 0-2.235.243-3.252.729-1.017.488-1.865 1.262-2.544 2.323-.029.119-.073.176-.132.176-.059 0-.119-.028-.178-.087-.53-1.002-1.267-1.777-2.212-2.323-.943-.546-2.063-.818-3.361-.818-2.064 0-3.701.693-4.91 2.079-.06.06-.118.082-.177.065-.059-.013-.088-.065-.088-.153V8.892c0-.147-.052-.273-.155-.376-.104-.103-.229-.156-.376-.156H.531c-.148 0-.273.053-.376.156-.103.103-.155.229-.155.376v21.543c0 .148.052.273.155.376.103.104.228.155.376.155h4.026c.147 0 .272-.051.376-.155.103-.103.155-.228.155-.376V16.368c0-1.209.302-2.168.907-2.876.604-.707 1.421-1.061 2.455-1.061.973 0 1.754.354 2.343 1.061.591.708.886 1.681.886 2.92v14.023c0 .148.05.273.154.376.103.104.228.155.376.155h4.071c.147 0 .272-.051.376-.155.103-.103.155-.228.155-.376V16.368c0-1.209.302-2.168.906-2.876.604-.707 1.423-1.061 2.456-1.061.972 0 1.754.354 2.343 1.061.59.708.886 1.681.886 2.92v14.023c0 .148.051.273.155.376.103.104.228.155.376.155h4.024c.147 0 .273-.051.376-.155.104-.103.156-.228.156-.376V15.704c0-2.418-.568-4.305-1.703-5.662-1.136-1.356-2.75-2.035-4.844-2.035m23.136 0c-2.065 0-3.687.708-4.867 2.123-.059.089-.118.119-.176.089-.061-.029-.089-.089-.089-.177V.531c0-.147-.052-.272-.156-.376C39.687.052 39.562 0 39.414 0h-4.069c-.147 0-.273.052-.376.155-.103.104-.155.229-.155.376v29.904c0 .148.052.273.155.376.103.104.229.155.376.155h4.069c.148 0 .273-.051.376-.155.104-.103.156-.228.156-.376V15.704c.117-1.002.487-1.798 1.106-2.389.619-.589 1.4-.884 2.344-.884 1.061 0 1.894.354 2.499 1.061.604.708.908 1.667.908 2.876v14.067c0 .148.05.273.154.376.103.104.229.155.376.155h4.07c.148 0 .273-.051.376-.155.103-.103.154-.228.154-.376V15.66c0-2.389-.604-4.261-1.812-5.618-1.21-1.356-2.892-2.035-5.043-2.035m30.479 6.724c-.915-4.482-3.289-6.724-7.123-6.724-2.094 0-3.657.679-4.689 2.035-.059.088-.119.118-.177.088-.059-.029-.089-.088-.089-.177V.531c0-.147-.051-.272-.154-.376C63.221.052 63.096 0 62.949 0h-4.071c-.148 0-.273.052-.376.155-.102.104-.154.229-.154.376v29.904c0 .148.052.273.154.376.103.104.228.155.376.155h4.071c.147 0 .272-.051.376-.155.103-.103.154-.228.154-.376v-1.15c0-.09.03-.147.089-.177.058-.029.118 0 .177.087 1.121 1.416 2.728 2.124 4.822 2.124 1.858 0 3.347-.559 4.468-1.68s1.931-2.802 2.433-5.043c.323-1.356.487-3.023.487-4.999 0-1.947-.133-3.569-.398-4.866m-5.221 9.334c-.53 1.888-1.622 2.831-3.274 2.831-1.533 0-2.565-.929-3.095-2.787-.296-1.032-.444-2.521-.444-4.468 0-2.005.163-3.523.488-4.556.47-1.77 1.474-2.654 3.007-2.654 1.563 0 2.64.87 3.229 2.61.384 1.121.576 2.653.576 4.6 0 1.799-.162 3.274-.487 4.424m19.42-15.837c-2.066 0-3.79.524-5.176 1.571-1.386 1.047-2.183 2.426-2.388 4.136-.03.118-.008.221.066.309.073.089.184.133.332.133l2.432.133c.295 0 .457-.133.487-.399.117-.943.568-1.702 1.35-2.278.781-.575 1.746-.862 2.897-.862 1.445 0 2.551.435 3.318 1.304.766.871 1.15 2.058 1.15 3.562v1.681c0 .118-.06.176-.177.176h-4.114c-2.625 0-4.705.613-6.237 1.837-1.534 1.224-2.302 3.015-2.302 5.373 0 2.273.649 3.91 1.948 4.912 1.297 1.002 2.875 1.503 4.733 1.503 1.238 0 2.367-.207 3.383-.619 1.018-.412 1.866-1.031 2.544-1.857.059-.059.111-.074.156-.045.044.03.066.074.066.133v1.593c0 .294.147.442.441.442h2.257c.295 0 .443-.148.443-.442V15.66c0-2.241-.68-4.04-2.035-5.397-1.357-1.356-3.215-2.035-5.574-2.035m-.973 20.349c-1.24 0-2.249-.316-3.031-.951-.781-.634-1.172-1.6-1.172-2.897 0-1.445.509-2.559 1.526-3.34 1.017-.781 2.351-1.173 4.004-1.173h3.937c.117 0 .177.059.177.177v3.583c0 1.446-.539 2.574-1.615 3.384-1.077.812-2.352 1.217-3.826 1.217M115.413.442V10.75c0 .088-.022.132-.066.132-.044 0-.097-.029-.155-.088-1.004-1.71-2.684-2.566-5.044-2.566-1.945 0-3.516.561-4.711 1.681-1.193 1.12-1.968 2.714-2.321 4.778-.207 1.209-.31 2.919-.31 5.13 0 2.184.117 3.894.354 5.133.412 2.064 1.201 3.642 2.366 4.733 1.164 1.091 2.661 1.636 4.49 1.636 2.33 0 4.055-.854 5.176-2.565.029-.088.073-.125.133-.111.059.016.088.067.088.155v1.726c0 .294.147.442.442.442h2.257c.294 0 .441-.148.441-.442V.442c0-.294-.147-.442-.441-.442h-2.257c-.295 0-.442.148-.442.442m-.354 24.287c-.236 1.179-.715 2.116-1.437 2.809-.724.693-1.659 1.039-2.81 1.039-1.21 0-2.197-.346-2.963-1.039-.768-.693-1.268-1.644-1.504-2.854-.266-1.15-.398-2.787-.398-4.91 0-2.124.161-3.819.486-5.087.266-1.121.781-2.02 1.548-2.7.766-.677 1.725-1.016 2.875-1.016 1.151 0 2.079.339 2.787 1.016.708.68 1.166 1.609 1.372 2.788.266 1.15.398 2.817.398 4.999 0 2.123-.119 3.775-.354 4.955m15.262 6.237h2.565c.236 0 .399-.118.486-.355l6.416-21.499c.029-.146.006-.265-.068-.353-.073-.088-.183-.133-.332-.133l-2.52-.044c-.265 0-.428.133-.488.398l-4.688 17.296c-.029.06-.067.089-.111.089s-.082-.029-.111-.089L126.782 8.98c-.059-.265-.221-.398-.488-.398h-2.476c-.295 0-.443.118-.443.354l.044.132 6.414 21.543c.089.237.251.355.488.355m21.232.353c2.124 0 3.879-.582 5.265-1.747 1.386-1.164 2.226-2.735 2.521-4.712.206-1.415.311-3.125.311-5.13 0-1.976-.105-3.672-.311-5.087-.264-1.948-1.098-3.502-2.499-4.667-1.4-1.165-3.148-1.748-5.241-1.748-2.154 0-3.932.583-5.331 1.748-1.401 1.165-2.234 2.735-2.499 4.711-.207 1.327-.311 3.007-.311 5.043 0 2.064.104 3.775.311 5.13.294 1.977 1.135 3.548 2.52 4.712 1.386 1.165 3.141 1.747 5.264 1.747m0-2.742c-1.267 0-2.337-.39-3.207-1.173-.869-.78-1.392-1.82-1.569-3.118-.118-1.092-.177-2.595-.177-4.512 0-1.917.059-3.421.177-4.512.177-1.298.7-2.337 1.569-3.119.87-.782 1.94-1.172 3.207-1.172 1.269 0 2.338.39 3.207 1.172.87.782 1.395 1.821 1.571 3.119.118 1.091.177 2.595.177 4.512 0 1.858-.059 3.362-.177 4.512-.176 1.298-.701 2.338-1.571 3.118-.869.783-1.938 1.173-3.207 1.173m26.189-19.553v1.593c0 .059-.023.096-.067.111-.044.015-.095-.007-.154-.067-1.181-1.621-2.92-2.433-5.221-2.433-1.887 0-3.458.575-4.711 1.725-1.254 1.151-1.998 2.684-2.233 4.601-.207 1.268-.311 3.008-.311 5.22 0 2.035.089 3.701.267 4.999.294 1.946 1.075 3.488 2.344 4.623 1.267 1.135 2.845 1.703 4.734 1.703 2.27 0 3.981-.826 5.131-2.478.059-.058.11-.073.154-.044.044.03.067.073.067.133v1.46c0 2.417-.597 4.18-1.791 5.286-1.196 1.106-3.178 1.614-5.951 1.526-.118-.03-.22-.007-.309.066-.088.074-.133.184-.133.332l-.044 1.991c0 .294.147.457.442.487 7.284.324 10.926-2.847 10.926-9.511V9.024c0-.294-.147-.442-.441-.442h-2.256c-.295 0-.443.148-.443.442m-.132 15.128c-.119 1.24-.583 2.258-1.395 3.054-.81.796-1.85 1.194-3.119 1.194-1.267 0-2.329-.398-3.184-1.194-.855-.796-1.357-1.814-1.504-3.054-.119-1.473-.177-2.947-.177-4.422 0-1.947.058-3.452.177-4.512.176-1.239.685-2.256 1.526-3.053.841-.796 1.895-1.194 3.162-1.194 1.269 0 2.309.398 3.119 1.194.812.797 1.276 1.814 1.395 3.053.088 1.238.132 2.742.132 4.512 0 1.798-.044 3.273-.132 4.422m16.633-15.924c-2.066 0-3.79.524-5.176 1.571-1.388 1.047-2.184 2.426-2.39 4.136-.029.118-.008.221.067.309.074.089.183.133.332.133l2.432.133c.295 0 .457-.133.488-.399.117-.943.567-1.702 1.348-2.278.781-.575 1.747-.862 2.899-.862 1.444 0 2.549.435 3.317 1.304.767.871 1.149 2.058 1.149 3.562v1.681c0 .118-.058.176-.175.176h-4.115c-2.626 0-4.705.613-6.237 1.837-1.534 1.224-2.301 3.015-2.301 5.373 0 2.273.649 3.91 1.947 4.912 1.297 1.002 2.876 1.503 4.734 1.503 1.237 0 2.365-.207 3.384-.619 1.016-.412 1.865-1.031 2.543-1.857.058-.059.111-.074.155-.045.044.03.065.074.065.133v1.593c0 .294.149.442.444.442h2.256c.294 0 .442-.148.442-.442V15.66c0-2.241-.679-4.04-2.035-5.397-1.357-1.356-3.214-2.035-5.573-2.035m-.974 20.349c-1.238 0-2.249-.316-3.03-.951-.783-.634-1.172-1.6-1.172-2.897 0-1.445.509-2.559 1.525-3.34 1.018-.781 2.353-1.173 4.003-1.173h3.939c.117 0 .175.059.175.177v3.583c0 1.446-.538 2.574-1.614 3.384-1.076.812-2.351 1.217-3.826 1.217M219.9.442V10.75c0 .088-.023.132-.068.132-.043 0-.095-.029-.154-.088-1.003-1.71-2.683-2.566-5.043-2.566-1.946 0-3.516.561-4.712 1.681-1.193 1.12-1.967 2.714-2.321 4.778-.207 1.209-.311 2.919-.311 5.13 0 2.184.119 3.894.355 5.133.413 2.064 1.202 3.642 2.366 4.733 1.165 1.091 2.661 1.636 4.49 1.636 2.329 0 4.056-.854 5.176-2.565.029-.088.073-.125.133-.111.059.016.089.067.089.155v1.726c0 .294.146.442.441.442h2.257c.295 0 .442-.148.442-.442V.442c0-.294-.147-.442-.442-.442h-2.257c-.295 0-.441.148-.441.442m-.355 24.287c-.235 1.179-.714 2.116-1.437 2.809-.724.693-1.659 1.039-2.81 1.039-1.209 0-2.196-.346-2.964-1.039-.766-.693-1.267-1.644-1.503-2.854-.265-1.15-.398-2.787-.398-4.91 0-2.124.161-3.819.486-5.087.266-1.121.782-2.02 1.548-2.7.768-.677 1.726-1.016 2.875-1.016 1.152 0 2.08.339 2.787 1.016.708.68 1.165 1.609 1.372 2.788.266 1.15.399 2.817.399 4.999 0 2.123-.118 3.775-.355 4.955m17.695 6.59c2.124 0 3.878-.582 5.264-1.747 1.385-1.164 2.227-2.735 2.522-4.712.206-1.415.309-3.125.309-5.13 0-1.976-.103-3.672-.309-5.087-.266-1.948-1.1-3.502-2.499-4.667-1.402-1.165-3.15-1.748-5.242-1.748-2.154 0-3.93.583-5.331 1.748-1.402 1.165-2.235 2.735-2.499 4.711-.208 1.327-.31 3.007-.31 5.043 0 2.064.102 3.775.31 5.13.293 1.977 1.134 3.548 2.521 4.712 1.386 1.165 3.141 1.747 5.264 1.747m0-2.742c-1.269 0-2.337-.39-3.207-1.173-.87-.78-1.394-1.82-1.571-3.118-.118-1.092-.176-2.595-.176-4.512 0-1.917.058-3.421.176-4.512.177-1.298.701-2.337 1.571-3.119s1.938-1.172 3.207-1.172c1.267 0 2.337.39 3.208 1.172.869.782 1.392 1.821 1.57 3.119.117 1.091.177 2.595.177 4.512 0 1.858-.06 3.362-.177 4.512-.178 1.298-.701 2.338-1.57 3.118-.871.783-1.941 1.173-3.208 1.173m20.792 2.61c2.269 0 4.076-.56 5.419-1.681 1.34-1.12 2.011-2.624 2.011-4.512 0-1.327-.331-2.411-.995-3.251-.664-.842-1.467-1.497-2.41-1.969-.944-.471-2.123-.943-3.539-1.416-1.682-.589-2.913-1.15-3.694-1.681-.782-.53-1.172-1.311-1.172-2.344 0-1.002.383-1.821 1.149-2.455.768-.634 1.8-.951 3.098-.951 1.327 0 2.395.331 3.207.995.81.664 1.217 1.497 1.217 2.499v.31c0 .207.146.31.441.31h2.079c.294 0 .443-.148.443-.443v-.088c0-1.799-.671-3.275-2.012-4.424-1.344-1.15-3.135-1.726-5.375-1.726-2.184 0-3.945.554-5.286 1.66-1.343 1.106-2.013 2.603-2.013 4.49 0 1.298.315 2.366.95 3.207.635.84 1.408 1.497 2.322 1.969.915.472 2.065.944 3.452 1.415 1.15.383 2.048.723 2.698 1.018.648.295 1.194.693 1.637 1.194.442.502.664 1.121.664 1.858 0 1.033-.393 1.888-1.173 2.565-.782.679-1.821 1.018-3.118 1.018-1.328 0-2.419-.346-3.275-1.039-.855-.693-1.282-1.511-1.282-2.456v-.399c0-.234-.148-.353-.442-.353h-2.124c-.295 0-.443.147-.443.443v.398c0 1.711.694 3.112 2.079 4.202 1.387 1.092 3.214 1.637 5.487 1.637" fill-rule="evenodd"/></svg>