<!--?xml version="1.0" encoding="UTF-8" standalone="no"?-->
<svg width="266px" height="40px" viewBox="0 0 266 40" version="1.1" xmlns="http://www.w3.org/2000/svg" xmlns:xlink="http://www.w3.org/1999/xlink" style="">
    <!-- Generator: Sketch 50.2 (55047) - http://www.bohemiancoding.com/sketch -->
    <g id="mhba_tipografia" stroke="none" stroke-width="1" fill="none" fill-rule="evenodd">
        <g id="Group-7" fill="#1D1D1B">
            <path d="M21.942,8.007 C20.791,8.007 19.707,8.25 18.69,8.736 C17.673,9.224 16.825,9.998 16.146,11.059 C16.117,11.178 16.073,11.235 16.014,11.235 C15.955,11.235 15.895,11.207 15.836,11.148 C15.306,10.146 14.569,9.371 13.624,8.825 C12.681,8.279 11.561,8.007 10.263,8.007 C8.199,8.007 6.562,8.7 5.353,10.086 C5.293,10.146 5.235,10.168 5.176,10.151 C5.117,10.138 5.088,10.086 5.088,9.998 L5.088,8.892 C5.088,8.745 5.036,8.619 4.933,8.516 C4.829,8.413 4.704,8.36 4.557,8.36 L0.531,8.36 C0.383,8.36 0.258,8.413 0.155,8.516 C0.052,8.619 0,8.745 0,8.892 L0,30.435 C0,30.583 0.052,30.708 0.155,30.811 C0.258,30.915 0.383,30.966 0.531,30.966 L4.557,30.966 C4.704,30.966 4.829,30.915 4.933,30.811 C5.036,30.708 5.088,30.583 5.088,30.435 L5.088,16.368 C5.088,15.159 5.39,14.2 5.995,13.492 C6.599,12.785 7.416,12.431 8.45,12.431 C9.423,12.431 10.204,12.785 10.793,13.492 C11.384,14.2 11.679,15.173 11.679,16.412 L11.679,30.435 C11.679,30.583 11.729,30.708 11.833,30.811 C11.936,30.915 12.061,30.966 12.209,30.966 L16.28,30.966 C16.427,30.966 16.552,30.915 16.656,30.811 C16.759,30.708 16.811,30.583 16.811,30.435 L16.811,16.368 C16.811,15.159 17.113,14.2 17.717,13.492 C18.321,12.785 19.14,12.431 20.173,12.431 C21.145,12.431 21.927,12.785 22.516,13.492 C23.106,14.2 23.402,15.173 23.402,16.412 L23.402,30.435 C23.402,30.583 23.453,30.708 23.557,30.811 C23.66,30.915 23.785,30.966 23.933,30.966 L27.957,30.966 C28.104,30.966 28.23,30.915 28.333,30.811 C28.437,30.708 28.489,30.583 28.489,30.435 L28.489,15.704 C28.489,13.286 27.921,11.399 26.786,10.042 C25.65,8.686 24.036,8.007 21.942,8.007 M45.078,8.007 C43.013,8.007 41.391,8.715 40.211,10.13 C40.152,10.219 40.093,10.249 40.035,10.219 C39.974,10.19 39.946,10.13 39.946,10.042 L39.946,0.531 C39.946,0.384 39.894,0.259 39.79,0.155 C39.687,0.052 39.562,0 39.414,0 L35.345,0 C35.198,0 35.072,0.052 34.969,0.155 C34.866,0.259 34.814,0.384 34.814,0.531 L34.814,30.435 C34.814,30.583 34.866,30.708 34.969,30.811 C35.072,30.915 35.198,30.966 35.345,30.966 L39.414,30.966 C39.562,30.966 39.687,30.915 39.79,30.811 C39.894,30.708 39.946,30.583 39.946,30.435 L39.946,15.704 C40.063,14.702 40.433,13.906 41.052,13.315 C41.671,12.726 42.452,12.431 43.396,12.431 C44.457,12.431 45.29,12.785 45.895,13.492 C46.499,14.2 46.803,15.159 46.803,16.368 L46.803,30.435 C46.803,30.583 46.853,30.708 46.957,30.811 C47.06,30.915 47.186,30.966 47.333,30.966 L51.403,30.966 C51.551,30.966 51.676,30.915 51.779,30.811 C51.882,30.708 51.933,30.583 51.933,30.435 L51.933,15.66 C51.933,13.271 51.329,11.399 50.121,10.042 C48.911,8.686 47.229,8.007 45.078,8.007 M75.557,14.731 C74.642,10.249 72.268,8.007 68.434,8.007 C66.34,8.007 64.777,8.686 63.745,10.042 C63.686,10.13 63.626,10.16 63.568,10.13 C63.509,10.101 63.479,10.042 63.479,9.953 L63.479,0.531 C63.479,0.384 63.428,0.259 63.325,0.155 C63.221,0.052 63.096,0 62.949,0 L58.878,0 C58.73,0 58.605,0.052 58.502,0.155 C58.4,0.259 58.348,0.384 58.348,0.531 L58.348,30.435 C58.348,30.583 58.4,30.708 58.502,30.811 C58.605,30.915 58.73,30.966 58.878,30.966 L62.949,30.966 C63.096,30.966 63.221,30.915 63.325,30.811 C63.428,30.708 63.479,30.583 63.479,30.435 L63.479,29.285 C63.479,29.195 63.509,29.138 63.568,29.108 C63.626,29.079 63.686,29.108 63.745,29.195 C64.866,30.611 66.473,31.319 68.567,31.319 C70.425,31.319 71.914,30.76 73.035,29.639 C74.156,28.518 74.966,26.837 75.468,24.596 C75.791,23.24 75.955,21.573 75.955,19.597 C75.955,17.65 75.822,16.028 75.557,14.731 M70.336,24.065 C69.806,25.953 68.714,26.896 67.062,26.896 C65.529,26.896 64.497,25.967 63.967,24.109 C63.671,23.077 63.523,21.588 63.523,19.641 C63.523,17.636 63.686,16.118 64.011,15.085 C64.481,13.315 65.485,12.431 67.018,12.431 C68.581,12.431 69.658,13.301 70.247,15.041 C70.631,16.162 70.823,17.694 70.823,19.641 C70.823,21.44 70.661,22.915 70.336,24.065 M89.756,8.228 C87.69,8.228 85.966,8.752 84.58,9.799 C83.194,10.846 82.397,12.225 82.192,13.935 C82.162,14.053 82.184,14.156 82.258,14.244 C82.331,14.333 82.442,14.377 82.59,14.377 L85.022,14.51 C85.317,14.51 85.479,14.377 85.509,14.111 C85.626,13.168 86.077,12.409 86.859,11.833 C87.64,11.258 88.605,10.971 89.756,10.971 C91.201,10.971 92.307,11.406 93.074,12.275 C93.84,13.146 94.224,14.333 94.224,15.837 L94.224,17.518 C94.224,17.636 94.164,17.694 94.047,17.694 L89.933,17.694 C87.308,17.694 85.228,18.307 83.696,19.531 C82.162,20.755 81.394,22.546 81.394,24.904 C81.394,27.177 82.043,28.814 83.342,29.816 C84.639,30.818 86.217,31.319 88.075,31.319 C89.313,31.319 90.442,31.112 91.458,30.7 C92.476,30.288 93.324,29.669 94.002,28.843 C94.061,28.784 94.113,28.769 94.158,28.798 C94.202,28.828 94.224,28.872 94.224,28.931 L94.224,30.524 C94.224,30.818 94.371,30.966 94.665,30.966 L96.922,30.966 C97.217,30.966 97.365,30.818 97.365,30.524 L97.365,15.66 C97.365,13.419 96.685,11.62 95.33,10.263 C93.973,8.907 92.115,8.228 89.756,8.228 M88.783,28.577 C87.543,28.577 86.534,28.261 85.752,27.626 C84.971,26.992 84.58,26.026 84.58,24.729 C84.58,23.284 85.089,22.17 86.106,21.389 C87.123,20.608 88.457,20.216 90.11,20.216 L94.047,20.216 C94.164,20.216 94.224,20.275 94.224,20.393 L94.224,23.976 C94.224,25.422 93.685,26.55 92.609,27.36 C91.532,28.172 90.257,28.577 88.783,28.577 M115.413,0.442 L115.413,10.75 C115.413,10.838 115.391,10.882 115.347,10.882 C115.303,10.882 115.25,10.853 115.192,10.794 C114.188,9.084 112.508,8.228 110.148,8.228 C108.203,8.228 106.632,8.789 105.437,9.909 C104.244,11.029 103.469,12.623 103.116,14.687 C102.909,15.896 102.806,17.606 102.806,19.817 C102.806,22.001 102.923,23.711 103.16,24.95 C103.572,27.014 104.361,28.592 105.526,29.683 C106.69,30.774 108.187,31.319 110.016,31.319 C112.346,31.319 114.071,30.465 115.192,28.754 C115.221,28.666 115.265,28.629 115.325,28.643 C115.384,28.659 115.413,28.71 115.413,28.798 L115.413,30.524 C115.413,30.818 115.56,30.966 115.855,30.966 L118.112,30.966 C118.406,30.966 118.553,30.818 118.553,30.524 L118.553,0.442 C118.553,0.148 118.406,0 118.112,0 L115.855,0 C115.56,0 115.413,0.148 115.413,0.442 M115.059,24.729 C114.823,25.908 114.344,26.845 113.622,27.538 C112.898,28.231 111.963,28.577 110.812,28.577 C109.602,28.577 108.615,28.231 107.849,27.538 C107.081,26.845 106.581,25.894 106.345,24.684 C106.079,23.534 105.947,21.897 105.947,19.774 C105.947,17.65 106.108,15.955 106.433,14.687 C106.699,13.566 107.214,12.667 107.981,11.987 C108.747,11.31 109.706,10.971 110.856,10.971 C112.007,10.971 112.935,11.31 113.643,11.987 C114.351,12.667 114.809,13.596 115.015,14.775 C115.281,15.925 115.413,17.592 115.413,19.774 C115.413,21.897 115.294,23.549 115.059,24.729 M130.321,30.966 L132.886,30.966 C133.122,30.966 133.285,30.848 133.372,30.611 L139.788,9.112 C139.817,8.966 139.794,8.847 139.72,8.759 C139.647,8.671 139.537,8.626 139.388,8.626 L136.868,8.582 C136.603,8.582 136.44,8.715 136.38,8.98 L131.692,26.276 C131.663,26.336 131.625,26.365 131.581,26.365 C131.537,26.365 131.499,26.336 131.47,26.276 L126.782,8.98 C126.723,8.715 126.561,8.582 126.294,8.582 L123.818,8.582 C123.523,8.582 123.375,8.7 123.375,8.936 L123.419,9.068 L129.833,30.611 C129.922,30.848 130.084,30.966 130.321,30.966 M151.553,31.319 C153.677,31.319 155.432,30.737 156.818,29.572 C158.204,28.408 159.044,26.837 159.339,24.86 C159.545,23.445 159.65,21.735 159.65,19.73 C159.65,17.754 159.545,16.058 159.339,14.643 C159.075,12.695 158.241,11.141 156.84,9.976 C155.44,8.811 153.692,8.228 151.599,8.228 C149.445,8.228 147.667,8.811 146.268,9.976 C144.867,11.141 144.034,12.711 143.769,14.687 C143.562,16.014 143.458,17.694 143.458,19.73 C143.458,21.794 143.562,23.505 143.769,24.86 C144.063,26.837 144.904,28.408 146.289,29.572 C147.675,30.737 149.43,31.319 151.553,31.319 M151.553,28.577 C150.286,28.577 149.216,28.187 148.346,27.404 C147.477,26.624 146.954,25.584 146.777,24.286 C146.659,23.194 146.6,21.691 146.6,19.774 C146.6,17.857 146.659,16.353 146.777,15.262 C146.954,13.964 147.477,12.925 148.346,12.143 C149.216,11.361 150.286,10.971 151.553,10.971 C152.822,10.971 153.891,11.361 154.76,12.143 C155.63,12.925 156.155,13.964 156.331,15.262 C156.449,16.353 156.508,17.857 156.508,19.774 C156.508,21.632 156.449,23.136 156.331,24.286 C156.155,25.584 155.63,26.624 154.76,27.404 C153.891,28.187 152.822,28.577 151.553,28.577 M177.742,9.024 L177.742,10.617 C177.742,10.676 177.719,10.713 177.675,10.728 C177.631,10.743 177.58,10.721 177.521,10.661 C176.34,9.04 174.601,8.228 172.3,8.228 C170.413,8.228 168.842,8.803 167.589,9.953 C166.335,11.104 165.591,12.637 165.356,14.554 C165.149,15.822 165.045,17.562 165.045,19.774 C165.045,21.809 165.134,23.475 165.312,24.773 C165.606,26.719 166.387,28.261 167.656,29.396 C168.923,30.531 170.501,31.099 172.39,31.099 C174.66,31.099 176.371,30.273 177.521,28.621 C177.58,28.563 177.631,28.548 177.675,28.577 C177.719,28.607 177.742,28.65 177.742,28.71 L177.742,30.17 C177.742,32.587 177.145,34.35 175.951,35.456 C174.755,36.562 172.773,37.07 170,36.982 C169.882,36.952 169.78,36.975 169.691,37.048 C169.603,37.122 169.558,37.232 169.558,37.38 L169.514,39.371 C169.514,39.665 169.661,39.828 169.956,39.858 C177.24,40.182 180.882,37.011 180.882,30.347 L180.882,9.024 C180.882,8.73 180.735,8.582 180.441,8.582 L178.185,8.582 C177.89,8.582 177.742,8.73 177.742,9.024 M177.61,24.152 C177.491,25.392 177.027,26.41 176.215,27.206 C175.405,28.002 174.365,28.4 173.096,28.4 C171.829,28.4 170.767,28.002 169.912,27.206 C169.057,26.41 168.555,25.392 168.408,24.152 C168.289,22.679 168.231,21.205 168.231,19.73 C168.231,17.783 168.289,16.278 168.408,15.218 C168.584,13.979 169.093,12.962 169.934,12.165 C170.775,11.369 171.829,10.971 173.096,10.971 C174.365,10.971 175.405,11.369 176.215,12.165 C177.027,12.962 177.491,13.979 177.61,15.218 C177.698,16.456 177.742,17.96 177.742,19.73 C177.742,21.528 177.698,23.003 177.61,24.152 M194.243,8.228 C192.177,8.228 190.453,8.752 189.067,9.799 C187.679,10.846 186.883,12.225 186.677,13.935 C186.648,14.053 186.669,14.156 186.744,14.244 C186.818,14.333 186.927,14.377 187.076,14.377 L189.508,14.51 C189.803,14.51 189.965,14.377 189.996,14.111 C190.113,13.168 190.563,12.409 191.344,11.833 C192.125,11.258 193.091,10.971 194.243,10.971 C195.687,10.971 196.792,11.406 197.56,12.275 C198.327,13.146 198.709,14.333 198.709,15.837 L198.709,17.518 C198.709,17.636 198.651,17.694 198.534,17.694 L194.419,17.694 C191.793,17.694 189.714,18.307 188.182,19.531 C186.648,20.755 185.881,22.546 185.881,24.904 C185.881,27.177 186.53,28.814 187.828,29.816 C189.125,30.818 190.704,31.319 192.562,31.319 C193.799,31.319 194.927,31.112 195.946,30.7 C196.962,30.288 197.811,29.669 198.489,28.843 C198.547,28.784 198.6,28.769 198.644,28.798 C198.688,28.828 198.709,28.872 198.709,28.931 L198.709,30.524 C198.709,30.818 198.858,30.966 199.153,30.966 L201.409,30.966 C201.703,30.966 201.851,30.818 201.851,30.524 L201.851,15.66 C201.851,13.419 201.172,11.62 199.816,10.263 C198.459,8.907 196.602,8.228 194.243,8.228 M193.269,28.577 C192.031,28.577 191.02,28.261 190.239,27.626 C189.456,26.992 189.067,26.026 189.067,24.729 C189.067,23.284 189.576,22.17 190.592,21.389 C191.61,20.608 192.945,20.216 194.595,20.216 L198.534,20.216 C198.651,20.216 198.709,20.275 198.709,20.393 L198.709,23.976 C198.709,25.422 198.171,26.55 197.095,27.36 C196.019,28.172 194.744,28.577 193.269,28.577 M219.9,0.442 L219.9,10.75 C219.9,10.838 219.877,10.882 219.832,10.882 C219.789,10.882 219.737,10.853 219.678,10.794 C218.675,9.084 216.995,8.228 214.635,8.228 C212.689,8.228 211.119,8.789 209.923,9.909 C208.73,11.029 207.956,12.623 207.602,14.687 C207.395,15.896 207.291,17.606 207.291,19.817 C207.291,22.001 207.41,23.711 207.646,24.95 C208.059,27.014 208.848,28.592 210.012,29.683 C211.177,30.774 212.673,31.319 214.502,31.319 C216.831,31.319 218.558,30.465 219.678,28.754 C219.707,28.666 219.751,28.629 219.811,28.643 C219.87,28.659 219.9,28.71 219.9,28.798 L219.9,30.524 C219.9,30.818 220.046,30.966 220.341,30.966 L222.598,30.966 C222.893,30.966 223.04,30.818 223.04,30.524 L223.04,0.442 C223.04,0.148 222.893,0 222.598,0 L220.341,0 C220.046,0 219.9,0.148 219.9,0.442 M219.545,24.729 C219.31,25.908 218.831,26.845 218.108,27.538 C217.384,28.231 216.449,28.577 215.298,28.577 C214.089,28.577 213.102,28.231 212.334,27.538 C211.568,26.845 211.067,25.894 210.831,24.684 C210.566,23.534 210.433,21.897 210.433,19.774 C210.433,17.65 210.594,15.955 210.919,14.687 C211.185,13.566 211.701,12.667 212.467,11.987 C213.235,11.31 214.193,10.971 215.342,10.971 C216.494,10.971 217.422,11.31 218.129,11.987 C218.837,12.667 219.294,13.596 219.501,14.775 C219.767,15.925 219.9,17.592 219.9,19.774 C219.9,21.897 219.782,23.549 219.545,24.729 M237.24,31.319 C239.364,31.319 241.118,30.737 242.504,29.572 C243.889,28.408 244.731,26.837 245.026,24.86 C245.232,23.445 245.335,21.735 245.335,19.73 C245.335,17.754 245.232,16.058 245.026,14.643 C244.76,12.695 243.926,11.141 242.527,9.976 C241.125,8.811 239.377,8.228 237.285,8.228 C235.131,8.228 233.355,8.811 231.954,9.976 C230.552,11.141 229.719,12.711 229.455,14.687 C229.247,16.014 229.145,17.694 229.145,19.73 C229.145,21.794 229.247,23.505 229.455,24.86 C229.748,26.837 230.589,28.408 231.976,29.572 C233.362,30.737 235.117,31.319 237.24,31.319 M237.24,28.577 C235.971,28.577 234.903,28.187 234.033,27.404 C233.163,26.624 232.639,25.584 232.462,24.286 C232.344,23.194 232.286,21.691 232.286,19.774 C232.286,17.857 232.344,16.353 232.462,15.262 C232.639,13.964 233.163,12.925 234.033,12.143 C234.903,11.361 235.971,10.971 237.24,10.971 C238.507,10.971 239.577,11.361 240.448,12.143 C241.317,12.925 241.84,13.964 242.018,15.262 C242.135,16.353 242.195,17.857 242.195,19.774 C242.195,21.632 242.135,23.136 242.018,24.286 C241.84,25.584 241.317,26.624 240.448,27.404 C239.577,28.187 238.507,28.577 237.24,28.577 M258.032,31.187 C260.301,31.187 262.108,30.627 263.451,29.506 C264.791,28.386 265.462,26.882 265.462,24.994 C265.462,23.667 265.131,22.583 264.467,21.743 C263.803,20.901 263,20.246 262.057,19.774 C261.113,19.303 259.934,18.831 258.518,18.358 C256.836,17.769 255.605,17.208 254.824,16.677 C254.042,16.147 253.652,15.366 253.652,14.333 C253.652,13.331 254.035,12.512 254.801,11.878 C255.569,11.244 256.601,10.927 257.899,10.927 C259.226,10.927 260.294,11.258 261.106,11.922 C261.916,12.586 262.323,13.419 262.323,14.421 L262.323,14.731 C262.323,14.938 262.469,15.041 262.764,15.041 L264.843,15.041 C265.137,15.041 265.286,14.893 265.286,14.598 L265.286,14.51 C265.286,12.711 264.615,11.235 263.274,10.086 C261.93,8.936 260.139,8.36 257.899,8.36 C255.715,8.36 253.954,8.914 252.613,10.02 C251.27,11.126 250.6,12.623 250.6,14.51 C250.6,15.808 250.915,16.876 251.55,17.717 C252.185,18.557 252.958,19.214 253.872,19.686 C254.787,20.158 255.937,20.63 257.324,21.101 C258.474,21.484 259.372,21.824 260.022,22.119 C260.67,22.414 261.216,22.812 261.659,23.313 C262.101,23.815 262.323,24.434 262.323,25.171 C262.323,26.204 261.93,27.059 261.15,27.736 C260.368,28.415 259.329,28.754 258.032,28.754 C256.704,28.754 255.613,28.408 254.757,27.715 C253.902,27.022 253.475,26.204 253.475,25.259 L253.475,24.86 C253.475,24.626 253.327,24.507 253.033,24.507 L250.909,24.507 C250.614,24.507 250.466,24.654 250.466,24.95 L250.466,25.348 C250.466,27.059 251.16,28.46 252.545,29.55 C253.932,30.642 255.759,31.187 258.032,31.187" id="Fill-6" class="aeyknvjU_0"></path>
        </g>
    </g>

<style data-made-with="vivus-instant">.aeyknvjU_0{stroke-dasharray:1537 1539;stroke-dashoffset:1538;animation:aeyknvjU_draw_0 7200ms linear 0ms infinite,aeyknvjU_fade 7200ms linear 0ms infinite;}@keyframes aeyknvjU_draw{100%{stroke-dashoffset:0;}}@keyframes aeyknvjU_fade{0%{stroke-opacity:1;}94.44444444444444%{stroke-opacity:1;}100%{stroke-opacity:0;}}@keyframes aeyknvjU_draw_0{11.11111111111111%{stroke-dashoffset: 1538}38.88888888888889%{ stroke-dashoffset: 0;}100%{ stroke-dashoffset: 0;}}</style></svg>
